<svg height="2350" width="720" xmlns="http://www.w3.org/2000/svg">
<rect height="2350" fill="#555" width="720"></rect>
<text fill="#7f7" font-family="Courier New" font-size="12" xml:space="preserve">
<tspan x="10" y="26"></tspan>
<tspan x="10" y="42">&gt; npmdoc-grunt-contrib-uglify@0.0.1 test /home/travis/build/npmdoc/node-npmdoc-grunt-contrib-ugl\</tspan>
<tspan x="10" y="58">ify</tspan>
<tspan x="10" y="74">&gt; (set -e; export PORT=$(utility2 shServerPortRandom); utility2 test test.js)</tspan>
<tspan x="10" y="90"></tspan>
<tspan x="10" y="106"></tspan>
<tspan x="10" y="122">[MODE_BUILD=npmTest] - 2017-03-25T11:07:01Z - npm-testing /home/travis/build/npmdoc/node-npmdoc-\</tspan>
<tspan x="10" y="138">grunt-contrib-uglify</tspan>
<tspan x="10" y="154"></tspan>
<tspan x="10" y="170"></tspan>
<tspan x="10" y="186">covering $ /home/travis/.nvm/versions/node/v7.7.4/bin/node /home/travis/build/npmdoc/node-npmdoc\</tspan>
<tspan x="10" y="202">-grunt-contrib-uglify/test.js</tspan>
<tspan x="10" y="218">merging file:///home/travis/build/npmdoc/node-npmdoc-grunt-contrib-uglify/tmp/build/test-report.\</tspan>
<tspan x="10" y="234">json to test-report</tspan>
<tspan x="10" y="250">&gt; server listening on http-port 42582</tspan>
<tspan x="10" y="266">created apidoc file:///home/travis/build/npmdoc/node-npmdoc-grunt-contrib-uglify/tmp/build/apido\</tspan>
<tspan x="10" y="282">c.html</tspan>
<tspan x="10" y="298"></tspan>
<tspan x="10" y="314"></tspan>
<tspan x="10" y="330">browserTest - created electron entry-page /home/travis/build/npmdoc/node-npmdoc-grunt-contrib-ug\</tspan>
<tspan x="10" y="346">lify/tmp/electron.15b0525e8810.ad9553349e0f7.html</tspan>
<tspan x="10" y="362"></tspan>
<tspan x="10" y="378">[node test-case 1 of 6 passed] - testCase_buildLib_default</tspan>
<tspan x="10" y="394">[node test-case 2 of 6 passed] - testCase_buildReadme_default</tspan>
<tspan x="10" y="410">[node test-case 3 of 6 passed] - testCase_buildTest_default</tspan>
<tspan x="10" y="426"></tspan>
<tspan x="10" y="442">browserTest - created electron entry-page /home/travis/build/npmdoc/node-npmdoc-grunt-contrib-ug\</tspan>
<tspan x="10" y="458">lify/tmp/electron.15b0525e8c40.1fd5795a5fb81.html</tspan>
<tspan x="10" y="474"></tspan>
<tspan x="10" y="490">(node:5058) DeprecationWarning: node --debug is deprecated. Please use node --inspect instead.</tspan>
<tspan x="10" y="506">Xlib:  extension "RANDR" missing on display ":99.0".</tspan>
<tspan x="10" y="522">Xlib:  extension "RANDR" missing on display ":99.0".</tspan>
<tspan x="10" y="538">&gt; server listening on http-port 57866</tspan>
<tspan x="10" y="554"></tspan>
<tspan x="10" y="570">/home/travis/build/npmdoc/node-npmdoc-grunt-contrib-uglify/node_modules/utility2/lib.utility2.sh\</tspan>
<tspan x="10" y="586">.html.js</tspan>
<tspan x="10" y="602"> #1 Line too long.</tspan>
<tspan x="10" y="618">    process.stdout.write('export npm_package_' + key.replace((/\W/g), '_') + '=' + JSON.stringif\</tspan>
<tspan x="10" y="634">y(value) + ';'); // Line 1445, Pos 116</tspan>
<tspan x="10" y="650"></tspan>
<tspan x="10" y="666">merging file:///home/travis/build/npmdoc/node-npmdoc-grunt-contrib-uglify/tmp/build/test-report.\</tspan>
<tspan x="10" y="682">json to test-report</tspan>
<tspan x="10" y="698">Xlib:  extension "RANDR" missing on display ":99.0".</tspan>
<tspan x="10" y="714"></tspan>
<tspan x="10" y="730">/home/travis/build/npmdoc/node-npmdoc-grunt-contrib-uglify/node_modules/utility2/lib.utility2.sh\</tspan>
<tspan x="10" y="746">.html.js</tspan>
<tspan x="10" y="762"> #1 Line too long.</tspan>
<tspan x="10" y="778">    process.stdout.write('export npm_package_' + key.replace((/\W/g), '_') + '=' + JSON.stringif\</tspan>
<tspan x="10" y="794">y(value) + ';'); // Line 1445, Pos 116</tspan>
<tspan x="10" y="810"></tspan>
<tspan x="10" y="826">[5089:0325/110703:WARNING:audio_manager.cc(314)] Multiple instances of AudioManager detected</tspan>
<tspan x="10" y="842">[5089:0325/110703:WARNING:audio_manager.cc(275)] Multiple instances of AudioManager detected</tspan>
<tspan x="10" y="858">merging file:///home/travis/build/npmdoc/node-npmdoc-grunt-contrib-uglify/tmp/build/test-report.\</tspan>
<tspan x="10" y="874">json to test-report</tspan>
<tspan x="10" y="890">[5115:0325/110703:ERROR:sandbox_linux.cc(343)] InitializeSandbox() called with multiple threads \</tspan>
<tspan x="10" y="906">in process gpu-process. </tspan>
<tspan x="10" y="922">Xlib:  extension "RANDR" missing on display ":99.0".</tspan>
<tspan x="10" y="938">[5089:0325/110703:ERROR:browser_gpu_channel_host_factory.cc(131)] Failed to create channel.</tspan>
<tspan x="10" y="954">[5093:0325/110703:WARNING:audio_manager.cc(314)] Multiple instances of AudioManager detected</tspan>
<tspan x="10" y="970">[5093:0325/110703:WARNING:audio_manager.cc(275)] Multiple instances of AudioManager detected</tspan>
<tspan x="10" y="986">[5140:0325/110703:ERROR:sandbox_linux.cc(343)] InitializeSandbox() called with multiple threads \</tspan>
<tspan x="10" y="1002">in process gpu-process. </tspan>
<tspan x="10" y="1018">[5093:0325/110703:ERROR:browser_gpu_channel_host_factory.cc(131)] Failed to create channel.</tspan>
<tspan x="10" y="1034"></tspan>
<tspan x="10" y="1050">browserTest - opened url file:///home/travis/build/npmdoc/node-npmdoc-grunt-contrib-uglify/tmp/b\</tspan>
<tspan x="10" y="1066">uild/apidoc.html</tspan>
<tspan x="10" y="1082"></tspan>
<tspan x="10" y="1098"></tspan>
<tspan x="10" y="1114">browserTest - opened url http://127.0.0.1:42582?modeTest=1</tspan>
<tspan x="10" y="1130"></tspan>
<tspan x="10" y="1146">[5093:0325/110705:INFO:CONSOLE(203)] "----------|-----------|-----------|-----------|-----------\</tspan>
<tspan x="10" y="1162">|</tspan>
<tspan x="10" y="1178">File      |   % Stmts |% Branches |   % Funcs |   % Lines |</tspan>
<tspan x="10" y="1194">----------|-----------|-----------|-----------|-----------|</tspan>
<tspan x="10" y="1210">----------|-----------|-----------|-----------|-----------|</tspan>
<tspan x="10" y="1226">All files |       100 |       100 |       100 |       100 |</tspan>
<tspan x="10" y="1242">----------|-----------|-----------|-----------|-----------|</tspan>
<tspan x="10" y="1258">", source: file:///home/travis/build/npmdoc/node-npmdoc-grunt-contrib-uglify/tmp/electron.15b052\</tspan>
<tspan x="10" y="1274">5e8c40.1fd5795a5fb81.html (203)</tspan>
<tspan x="10" y="1290">[5093:0325/110705:INFO:CONSOLE(203)] "created coverage file:///tmp/build/coverage.html/index.htm\</tspan>
<tspan x="10" y="1306">l", source: file:///home/travis/build/npmdoc/node-npmdoc-grunt-contrib-uglify/tmp/electron.15b05\</tspan>
<tspan x="10" y="1322">25e8c40.1fd5795a5fb81.html (203)</tspan>
<tspan x="10" y="1338">[node test-case 4 of 6 passed] - testCase_buildApp_default</tspan>
<tspan x="10" y="1354"></tspan>
<tspan x="10" y="1370">browserTest - created screen-capture file:///home/travis/build/npmdoc/node-npmdoc-grunt-contrib-\</tspan>
<tspan x="10" y="1386">uglify/tmp/build/screen-capture.npmTest.browser._2Fhome_2Ftravis_2Fbuild_2Fnpmdoc_2Fnode-npmdoc-\</tspan>
<tspan x="10" y="1402">grunt-contrib-uglify_2Ftmp_2Fbuild_2Fapidoc.html.png</tspan>
<tspan x="10" y="1418"></tspan>
<tspan x="10" y="1434"></tspan>
<tspan x="10" y="1450">browserTest - exit-code 0 - file:///home/travis/build/npmdoc/node-npmdoc-grunt-contrib-uglify/tm\</tspan>
<tspan x="10" y="1466">p/build/apidoc.html</tspan>
<tspan x="10" y="1482"></tspan>
<tspan x="10" y="1498">[node test-case 5 of 6 passed] - testCase_buildApidoc_default</tspan>
<tspan x="10" y="1514"></tspan>
<tspan x="10" y="1530">browserTest - created screen-capture file:///home/travis/build/npmdoc/node-npmdoc-grunt-contrib-\</tspan>
<tspan x="10" y="1546">uglify/tmp/build/screen-capture.npmTest.browser..png</tspan>
<tspan x="10" y="1562"></tspan>
<tspan x="10" y="1578"></tspan>
<tspan x="10" y="1594">browserTest - exit-code 0 - http://127.0.0.1:42582?modeTest=1</tspan>
<tspan x="10" y="1610"></tspan>
<tspan x="10" y="1626"></tspan>
<tspan x="10" y="1642">browserTest - merged coverage from /home/travis/build/npmdoc/node-npmdoc-grunt-contrib-uglify/tm\</tspan>
<tspan x="10" y="1658">p/coverage.npmTest.browser.%2F.json</tspan>
<tspan x="10" y="1674"></tspan>
<tspan x="10" y="1690"></tspan>
<tspan x="10" y="1706">browserTest - merging test-report from /home/travis/build/npmdoc/node-npmdoc-grunt-contrib-uglif\</tspan>
<tspan x="10" y="1722">y/tmp/test-report.npmTest.browser.%2F.json</tspan>
<tspan x="10" y="1738"></tspan>
<tspan x="10" y="1754">[node test-case 6 of 6 passed] - testCase_webpage_default</tspan>
<tspan x="10" y="1770">-----------------------------------------|-----------|-----------|-----------|-----------|</tspan>
<tspan x="10" y="1786">File                                     |   % Stmts |% Branches |   % Funcs |   % Lines |</tspan>
<tspan x="10" y="1802">-----------------------------------------|-----------|-----------|-----------|-----------|</tspan>
<tspan x="10" y="1818">   node-npmdoc-grunt-contrib-uglify/     |       100 |       100 |       100 |       100 |</tspan>
<tspan x="10" y="1834">      example.js                         |       100 |       100 |       100 |       100 |</tspan>
<tspan x="10" y="1850">      lib.npmdoc_grunt_contrib_uglify.js |       100 |       100 |       100 |       100 |</tspan>
<tspan x="10" y="1866">      test.js                            |       100 |       100 |       100 |       100 |</tspan>
<tspan x="10" y="1882">-----------------------------------------|-----------|-----------|-----------|-----------|</tspan>
<tspan x="10" y="1898">All files                                |       100 |       100 |       100 |       100 |</tspan>
<tspan x="10" y="1914">-----------------------------------------|-----------|-----------|-----------|-----------|</tspan>
<tspan x="10" y="1930"></tspan>
<tspan x="10" y="1946">created coverage file:///home/travis/build/npmdoc/node-npmdoc-grunt-contrib-uglify/tmp/build/cov\</tspan>
<tspan x="10" y="1962">erage.html/index.html</tspan>
<tspan x="10" y="1978"></tspan>
<tspan x="10" y="1994">/home/travis/build/npmdoc/node-npmdoc-grunt-contrib-uglify/node_modules/utility2/lib.utility2.sh\</tspan>
<tspan x="10" y="2010">.html.js</tspan>
<tspan x="10" y="2026"> #1 Line too long.</tspan>
<tspan x="10" y="2042">    process.stdout.write('export npm_package_' + key.replace((/\W/g), '_') + '=' + JSON.stringif\</tspan>
<tspan x="10" y="2058">y(value) + ';'); // Line 1445, Pos 116</tspan>
<tspan x="10" y="2074"></tspan>
<tspan x="10" y="2090">merging file:///home/travis/build/npmdoc/node-npmdoc-grunt-contrib-uglify/tmp/build/test-report.\</tspan>
<tspan x="10" y="2106">json to test-report</tspan>
<tspan x="10" y="2122"></tspan>
<tspan x="10" y="2138">-------------------------------------------------------</tspan>
<tspan x="10" y="2154">| test-report - buildNpmdoc - node - linux v7.7.4 - 2017-03-25T11:06:50.429Z</tspan>
<tspan x="10" y="2170">|   17214 ms            0 failed        6 passed      |</tspan>
<tspan x="10" y="2186">-------------------------------------------------------</tspan>
<tspan x="10" y="2202"></tspan>
<tspan x="10" y="2218">created test-report file:///home/travis/build/npmdoc/node-npmdoc-grunt-contrib-uglify/tmp/build/\</tspan>
<tspan x="10" y="2234">test-report.html</tspan>
<tspan x="10" y="2250"></tspan>
<tspan x="10" y="2266"></tspan>
<tspan x="10" y="2282">npmTest - 0 failed tests</tspan>
<tspan x="10" y="2298"></tspan>
<tspan x="10" y="2314"></tspan>
<tspan x="10" y="2330">[MODE_BUILD=npmTest] - 2017-03-25T11:07:10Z - EXIT_CODE - 0</tspan>
</text>
</svg>
